<?xml version="1.0" encoding="UTF-8"?> <svg xmlns="http://www.w3.org/2000/svg" id="Layer_1" data-name="Layer 1" viewBox="0 0 385.88 135.68"> <defs> <style>.cls-1{fill:#231f20;}.cls-2{fill:none;stroke:#231f20;stroke-linecap:round;stroke-linejoin:round;stroke-width:4.57px;}</style> </defs> <title>rebels_logo_svg</title> <path class="cls-1" d="M158,89.74,144.82,71.91h-8.46V89.74H129V43.6H145.8c9.3,0,15.66,5.8,15.66,14.12a13.47,13.47,0,0,1-8.88,13l13.84,19Zm-21.6-24.4h9.3c5.1,0,8.18-3.07,8.18-7.55s-3.08-7.62-8.18-7.62h-9.3Z"></path> <path class="cls-1" d="M173.53,75c.91,5.59,5.31,9,11.18,9a14.78,14.78,0,0,0,10-4l3.49,5a19.19,19.19,0,0,1-13.7,5.52c-10.48,0-18.45-7.75-18.45-17.89a17.69,17.69,0,0,1,17.75-18,15.44,15.44,0,0,1,15.87,15.72,21.88,21.88,0,0,1-.56,4.62Zm18.8-5.73c-.07-5.25-4-8.39-8.81-8.39s-8.73,3.28-9.85,8.39Z"></path> <path class="cls-1" d="M223.82,90.5c-5,0-9.44-2-12-5.52v4.76h-6.85V37.31h7.34v22.3a14.55,14.55,0,0,1,11.47-5c9.71,0,16.84,7.76,16.84,18S233.39,90.5,223.82,90.5Zm-1.26-29.14c-5.39,0-10.35,3.7-10.35,11.25s5,11.18,10.35,11.18c5.94,0,10.48-4.68,10.48-11.25S228.43,61.36,222.56,61.36Z"></path> <path class="cls-1" d="M251.13,75c.91,5.59,5.32,9,11.19,9a14.76,14.76,0,0,0,10-4l3.5,5a19.22,19.22,0,0,1-13.7,5.52c-10.49,0-18.46-7.75-18.46-17.89a17.69,17.69,0,0,1,17.76-18,15.44,15.44,0,0,1,15.87,15.72,21.88,21.88,0,0,1-.56,4.62Zm18.81-5.73c-.07-5.25-4-8.39-8.81-8.39s-8.74,3.28-9.86,8.39Z"></path> <path class="cls-1" d="M282.63,37.31H290V89.74h-7.34Z"></path> <path class="cls-1" d="M298.17,79.25c3,3.15,6,4.89,9.64,4.89,3.15,0,5.53-1.32,5.53-3.84,0-2-1.47-2.87-4.83-4.26L305,74.57c-6.08-2.52-8.95-5.17-8.95-10,0-6.15,5.1-9.92,12.09-9.92A14.68,14.68,0,0,1,320.05,60l-4,4.54A11.19,11.19,0,0,0,308,61c-2.86,0-4.68,1.12-4.68,3.28,0,1.75,1.19,2.66,4.54,4.06l3.29,1.32c6.5,2.73,9.37,5.53,9.37,10.35a9.23,9.23,0,0,1-3.64,7.76,14.73,14.73,0,0,1-9.09,2.72A17.23,17.23,0,0,1,294,83.86Z"></path> <path class="cls-1" d="M330.68,79.67a5.42,5.42,0,0,1,0,10.83,5.36,5.36,0,0,1-5.52-5.38A5.43,5.43,0,0,1,330.68,79.67Z"></path> <path class="cls-1" d="M370.39,89.74h-6.85V85.89c-2.52,3-6.29,4.61-11,4.61-7.2,0-11.95-4-11.95-9.92s4.89-9.79,12.65-9.79H363V68.56c0-4.76-2.66-7.34-7.34-7.34-3.85,0-6.64,1.67-9.51,5.1L341.87,62a16.79,16.79,0,0,1,14.47-7.34c8.46,0,14.05,5.1,14.05,14.33ZM363,76.11h-8.81c-3.91,0-6.08,1.39-6.08,4.19s2.45,4.54,6,4.54c5,0,8.88-3.42,8.88-8.11Z"></path> <path class="cls-1" d="M380.92,37.73a4.93,4.93,0,0,1,5,4.89,5,5,0,0,1-10,0A4.94,4.94,0,0,1,380.92,37.73Zm-3.71,17.69h7.34V89.74h-7.34Z"></path> <path class="cls-1" d="M99.5,83.24H73.27A2.28,2.28,0,0,1,71,81V54.73a2.29,2.29,0,0,1,2.28-2.29H99.5a2.29,2.29,0,0,1,2.28,2.29V81A2.28,2.28,0,0,1,99.5,83.24ZM75.56,78.67H97.21V57H75.56Z"></path> <path class="cls-1" d="M73.27,83.24a2.25,2.25,0,0,1-1.61-.67l-33.9-33.9A2.28,2.28,0,0,1,41,45.44l33.9,33.9a2.29,2.29,0,0,1-1.62,3.9Z"></path> <path class="cls-1" d="M99.5,57a2.31,2.31,0,0,1-1.62-.67L46.11,4.57H20.83a2.29,2.29,0,1,1,0-4.57H47.05a2.29,2.29,0,0,1,1.62.67l52.44,52.44A2.29,2.29,0,0,1,99.5,57Z"></path> <path class="cls-1" d="M73.27,57a2.29,2.29,0,0,1-1.61-.67L19.21,3.9A2.29,2.29,0,1,1,22.45.67L74.89,53.11A2.29,2.29,0,0,1,73.27,57Z"></path> <path class="cls-2" d="M20.83,28.51"></path> <path class="cls-2" d="M47.05,2.29"></path> <path class="cls-1" d="M47.05,135.68H20.83a2.29,2.29,0,0,1-2.29-2.28V107.17a2.29,2.29,0,0,1,2.29-2.28H47.05a2.28,2.28,0,0,1,2.29,2.28V133.4A2.28,2.28,0,0,1,47.05,135.68Zm-23.93-4.57H44.77V109.46H23.12Z"></path> <path class="cls-1" d="M20.83,109.46a2.29,2.29,0,0,1-1.62-3.9L58.55,66.22a2.29,2.29,0,0,1,3.23,3.24L22.45,108.79A2.27,2.27,0,0,1,20.83,109.46Z"></path> <path class="cls-1" d="M47.05,135.68a2.29,2.29,0,0,1-1.61-3.9L97.21,80V57H73.27a2.29,2.29,0,0,1,0-4.58H99.5a2.29,2.29,0,0,1,2.28,2.29V81a2.29,2.29,0,0,1-.67,1.62L48.67,135A2.27,2.27,0,0,1,47.05,135.68Z"></path> <path class="cls-1" d="M47.05,109.46a2.29,2.29,0,0,1-1.61-3.9L71.66,79.34a2.28,2.28,0,1,1,3.23,3.23L48.67,108.79A2.27,2.27,0,0,1,47.05,109.46Z"></path> <path class="cls-2" d="M73.28,54.73"></path> <path class="cls-2" d="M99.5,81"></path> <path class="cls-1" d="M20.83,41.66A2.29,2.29,0,0,1,19.21,41L.67,22.45a2.3,2.3,0,0,1,0-3.24L19.21.67a2.3,2.3,0,0,1,3.24,0L41,19.21a2.29,2.29,0,0,1,0,3.24L22.45,41A2.29,2.29,0,0,1,20.83,41.66ZM5.52,20.83,20.83,36.14,36.14,20.83,20.83,5.52Z"></path> <path class="cls-1" d="M39.38,90.92a2.29,2.29,0,0,1-2.29-2.29V20.83a2.29,2.29,0,1,1,4.57,0v67.8A2.29,2.29,0,0,1,39.38,90.92Z"></path> <path class="cls-1" d="M20.83,135.68a2.29,2.29,0,0,1-1.62-.67L.67,116.47A2.29,2.29,0,0,1,0,114.85v-94a2.29,2.29,0,1,1,4.57,0V113.9l17.88,17.88a2.29,2.29,0,0,1-1.62,3.9Z"></path> <path class="cls-1" d="M20.83,135.68a2.29,2.29,0,0,1-2.29-2.28v-94a2.29,2.29,0,0,1,4.58,0v94A2.29,2.29,0,0,1,20.83,135.68Z"></path> </svg> 